<svg width="450" height="300" viewBox="0 0 400 200">xmlns=&quot;http://www.w3.org/2000/svg&quot;&gt;<path d="M40 110a14 6 25 0 0 70-30 14 6 25 0 0-70 30" fill="orange" filter="drop-shadow(5px 30px 5px lightgray)"/><circle cx="190" cy="100" r="86" fill="orange" filter="drop-shadow(5px 30px 5px lightgray)"/><path fill="#fff" d="m12 65 25-8-17 33z"/><path stroke="orange" stroke-width="5" d="m122 45-1-23 23 4zM200 15l20-10 10 22z"/><circle cx="180" cy="75" r="35" fill="#fff"/><circle cx="230" cy="76" r="34" fill="#fff"/><circle cx="230" cy="76" r="6"/><circle cx="190" cy="76" r="6"/><circle cx="210" cy="105" r="12"/><ellipse cx="183" cy="141" rx="30" ry="15" fill="#DC153B"/><ellipse cx="345" cy="182" rx="55" ry="15" fill="broun"/><path fill="broun" d="M290 182h109l-3-37H295z"/><ellipse cx="345" cy="145" rx="50" ry="14" fill="peru"/><circle cx="320" cy="80" r="20" fill="#fff" filter="drop-shadow(20px 60px 5px gray)"/><circle cx="345" cy="90" r="50" fill="#ff0"/><circle cx="350" cy="80" r="20" fill="#fff"/><circle cx="320" cy="80" r="20" fill="#fff"/><circle cx="318" cy="80" r="5"/><circle cx="348" cy="80" r="5"/><ellipse cx="335" cy="115" rx="7" ry="15" fill="#DC153B"/><ellipse cx="345" cy="120" rx="45" ry="14" fill="none"/></svg>