<svg width="450" height="300" viewBox="0 0 400 200"> xmlns="http://www.w3.org/2000/svg">
		
		<path d="M 40 110 A 14 6 25 0 0 110 80 A 14 6 25 0 0 40 110" fill="orange" filter="drop-shadow(5px 30px 5px lightgray)"/>
		<circle cx="190" cy="100" r="86" fill="orange" filter="drop-shadow(5px 30px 5px lightgray)"/>
		 <polygon points="12,65 37,57 20,90" fill="white" />
		<polygon points="122,45 121,22 144,26" stroke="orange" stroke-width="5" fill="black" />
		<polygon points="200,15 220,5 230,27" stroke="orange" stroke-width="5" fill="black" />
		<circle cx="180" cy="75" r="35" fill="white"/>
		<circle cx="230" cy="76" r="34" fill="white"/>
		<circle cx="230" cy="76" r="6" fill="black"/>
		<circle cx="190" cy="76" r="6" fill="black"/>
		<circle cx="210" cy="105" r="12" fill="black"/>
		<ellipse cx="183" cy="141" rx="30" ry="15" fill="rgb(220,21,59)" />
		
		<ellipse cx="345" cy="182" rx="55" ry="15" fill="broun" />
		<polygon points="290,182 399,182 396,145 295,145"  fill="broun" />
		<ellipse cx="345" cy="145" rx="50" ry="14" fill="peru" />
		<circle cx="320" cy="80" r="20" fill="white" filter="drop-shadow(20px 60px 5px gray)"/>
		<circle cx="345" cy="90" r="50" fill="yellow" />
		<circle cx="350" cy="80" r="20" fill="white"/>
		<circle cx="320" cy="80" r="20" fill="white"/>
		<circle cx="318" cy="80" r="5" fill="black"/>
		<circle cx="348" cy="80" r="5" fill="black"/>
		<ellipse cx="335" cy="115" rx="7" ry="15" fill="rgb(220,21,59)" />
		<ellipse cx="345" cy="120" rx="45" ry="14" fill="none" />
	</svg>